<svg width="20" height="20" viewBox="0 0 20 20" fill="none" xmlns="http://www.w3.org/2000/svg">
<g clip-path="url(#clip0_404_41039)">
<path d="M9.8 19.9C9.5 19.6 9.3 19.3 9.2 19.1C9.1 18.9 9 18.6 9 18.3C9 17.9 9 17.6 9.1 16.8C9.2 16.4 9.2 16 9.1 15.8C9.1 15.7 8.9 15.2 8.9 15.2C8.9 15.2 8.9 15.2 8.7 15.4C8.6 15.5 8.3 15.7 8 16C7.8 16.1 7.6 16.3 7.6 16.3C6.8 16.9 6.4 17.5 6.3 18.1C6.3 18.2 6.3 18.4 6.3 18.7C6.3 19.2 6.3 19.3 6.3 19.2C6.3 19.2 6.1 18.7 6.1 18.5C6 18.1 6 17.8 6 17.5C6.1 17.1 6.3 16.4 6.6 16C6.6 15.9 6.7 15.9 6.7 15.9C6.7 15.9 6.7 15.8 6.8 15.8C7.1 15.3 7.2 15.1 7.3 14.7C7.3 14.5 7.3 14.1 7.3 14.1C7.3 14.1 7.2 14.1 7.2 14.2C6.9 14.4 6.7 14.5 6 14.7C5.2 14.9 5 15 4.7 15.2C4.2 15.5 3.8 15.8 3.6 16.3C3.6 16.4 3.5 16.5 3.5 16.6C3.5 16.7 3.4 16.8 3.4 16.9C3.4 17 3.3 17.1 3.3 17.1C3.3 17.1 3.3 16.9 3.3 16.6C3.3 16.2 3.4 16 3.5 15.7C3.7 15.2 4.1 14.8 4.8 14.3C5.4 13.8 5.6 13.6 5.8 13.2C5.9 13 5.9 12.9 5.9 12.9C5.9 12.9 5.8 12.9 5.6 12.9C5.4 12.9 5 12.9 4.7 12.9C3.9 12.8 3.8 12.8 3.3 12.8C3 12.8 2.8 12.8 2.7 12.8C2.4 12.9 2.1 13 1.9 13.1C1.8 13.2 1.7 13.2 1.3 13.6C1.1 13.8 1 13.9 1 13.9C0.9 13.9 1 13.8 1.2 13.4C1.4 13 1.7 12.7 2 12.5C2.4 12.2 2.9 12 3.5 11.9C3.6 11.7 4 11.6 4 11.6C4.2 11.5 4.3 11.4 4.5 11.3C4.7 11.2 4.9 10.9 4.9 10.9C4.9 10.9 4.8 10.9 4.7 10.9C4.4 10.8 4 10.7 3.6 10.4C3.5 10.3 3.4 10.3 3.4 10.3C3.4 10.3 3.3 10.3 3.3 10.2C3.1 10.1 2.5 9.8 2.3 9.7C2 9.6 1.8 9.6 1.5 9.6C1.1 9.6 1 9.6 0.6 9.8C0.1 10 0 10 0 10C0 10 0.3 9.7 0.6 9.5C0.9 9.2 1.3 9.1 1.7 9C2.2 9 2.5 9 3.3 9.1C3.6 9.2 4.1 9.2 4.2 9.1C4.4 9.1 4.8 9 4.8 9C4.8 9 4.8 9 4.9 9H5C5 9 4.9 8.9 4.8 8.8C4.5 8.6 4.3 8.4 4 8C3.6 7.5 3.4 7.2 3.1 7C2.9 6.7 2.7 6.6 2.4 6.4C2.3 6.4 2 6.3 1.8 6.2C1.7 6.2 1.5 6.2 1.3 6.2C0.9 6.2 0.8 6.2 0.8 6.2C0.8 6.2 0.9 6.1 1.1 6.1C1.7 5.9 2.1 5.9 2.5 5.9C2.7 5.9 3.1 6.1 3.2 6.1C3.5 6.3 3.8 6.4 4 6.5C4.1 6.5 4.1 6.6 4.1 6.6C4.1 6.6 4.2 6.6 4.2 6.7C4.4 6.8 4.7 6.9 4.8 7C5 7 5.3 7.1 5.5 7.1C5.8 7.1 5.8 7.1 5.7 6.9C5.6 6.8 5.4 6.5 5.4 6.3C5.4 6.2 5.3 5.9 5.2 5.7C5.1 5.3 4.9 4.8 4.9 4.6C4.9 4.6 4.8 4.5 4.8 4.4C4.6 4 4.2 3.5 3.8 3.3C3.7 3.3 3.6 3.2 3.5 3.2C3.3 3.1 3 3 3 3C2.9 2.9 3.1 2.9 3.5 3C4 3 4.3 3.1 4.6 3.3C5 3.6 5.4 3.9 5.8 4.5C6.2 5.1 6.4 5.2 6.7 5.4C6.8 5.5 7.2 5.7 7.3 5.7C7.3 5.7 7.3 5.7 7.3 5.4C7.3 5.1 7.3 4.9 7.3 4.6C7.3 3.6 7.3 3.4 7.3 3C7.3 2.5 7.2 2.3 7.1 1.9C6.9 1.6 6.8 1.5 6.5 1.1C6.2 0.9 6.2 0.8 6.2 0.8C6.2 0.8 6.3 0.9 6.5 0.9C7 1.2 7.3 1.4 7.5 1.7C7.6 1.9 7.7 2 7.8 2.2C8 2.5 8.1 2.8 8.2 3.3C8.4 4.1 8.4 4.2 8.6 4.5C8.7 4.6 9 4.9 9.1 4.9C9.1 4.9 9.1 4.9 9.1 4.8C9.2 4.3 9.3 4.1 9.5 3.7C9.5 3.6 9.6 3.5 9.6 3.5C9.6 3.5 9.7 3.4 9.7 3.3C10.2 2.5 10.4 1.9 10.4 1.4C10.4 1.3 10.4 1.1 10.4 1.1C10.4 1 10.3 0.7 10.2 0.6C10.2 0.5 10 0 10 0C10 0 10.3 0.3 10.5 0.6C10.9 1 11 1.5 11 2.2C11 2.5 11 2.6 11 2.9C11 3.1 10.9 3.3 10.9 3.4C10.9 3.5 10.9 3.6 10.9 3.7C10.9 3.9 10.9 4.1 10.9 4.3C10.9 4.5 11.1 4.9 11.1 4.9C11.1 4.9 11.1 4.9 11.3 4.8C11.5 4.6 11.7 4.3 12 4.1C12.6 3.7 12.8 3.4 13.1 3.2C13.5 2.8 13.7 2.5 13.8 2.1C13.9 1.9 13.9 1.7 13.9 1.3C13.9 1.1 13.9 0.8 13.9 0.8V0.9C14 1 14.1 1.4 14.1 1.7C14.2 2.3 14 3.1 13.5 4C13.1 4.6 13 4.8 13 5.2C13 5.4 12.9 5.8 13 5.8C13 5.8 13.1 5.8 13.2 5.7C13.4 5.6 13.7 5.4 13.9 5.4C14 5.4 14.2 5.3 14.3 5.3C14.9 5.1 15.3 5 15.3 5C15.3 5 15.3 5 15.4 5C15.4 5 15.5 5 15.6 4.9C15.7 4.9 15.7 4.8 15.8 4.8C16 4.7 16.2 4.6 16.4 4.4C16.7 4.2 16.8 3.9 17 3.4C17 3.1 17 3 17.1 3C17.1 3 17.1 3 17.1 3.2C17.1 3.6 17 3.9 16.9 4.2C16.7 4.7 16.3 5.3 15.6 5.8C15.2 6.1 14.9 6.3 14.8 6.4C14.6 6.6 14.5 6.8 14.4 7.1C14.4 7.2 14.3 7.2 14.3 7.3C14.3 7.3 14.3 7.3 14.3 7.4C14.3 7.4 14.4 7.4 14.5 7.4C14.7 7.4 14.8 7.4 15.1 7.4C15.3 7.4 15.5 7.4 15.6 7.4C15.8 7.4 16.2 7.5 16.5 7.5C17.1 7.6 17.6 7.5 18.1 7.3C18.4 7 18.5 6.8 19 6.4C19.2 6.2 19.3 6.2 19.3 6.2C19.3 6.2 19.1 6.5 18.9 6.9C18.7 7.3 18.3 7.6 17.8 7.8C17.6 7.9 17.6 7.9 17.5 7.9C17.4 7.9 17.4 7.9 17.4 8C17.3 8 17.1 8.1 16.7 8.2C16.1 8.4 16 8.4 15.7 8.6C15.5 8.7 15.2 9 15.2 9.1C15.2 9.1 15.3 9.1 15.4 9.2C15.6 9.2 15.7 9.3 15.8 9.3C15.9 9.3 16.2 9.5 16.3 9.5C16.4 9.5 16.5 9.6 16.5 9.6C16.9 9.8 17 9.9 17.2 10C17.3 10 17.4 10.1 17.5 10.1C17.6 10.1 17.7 10.2 17.7 10.2C17.8 10.3 18.3 10.4 18.5 10.4C18.8 10.4 19.1 10.4 19.3 10.3C19.4 10.3 19.7 10.2 19.7 10.2C19.7 10.2 19.7 10.2 19.8 10.2C19.8 10.1 20 10 20 10C20 10 20 10 19.8 10.2C19.2 10.7 18.8 10.9 18.2 11C17.8 11.1 17.4 11 16.6 10.9C16.5 10.9 16.2 10.9 16 10.9C15.7 10.9 15.5 10.9 15.2 11C15.1 11 15 11.1 15 11.1L15.1 11.2C15.4 11.4 15.6 11.6 15.9 12C16.3 12.6 16.7 13 16.9 13.2C17.2 13.5 17.4 13.6 17.7 13.7C18 13.8 18.1 13.8 18.6 13.8C18.9 13.8 19.1 13.8 19.1 13.8C19.1 13.8 19.1 13.9 18.8 14C18.4 14.1 18.2 14.2 17.9 14.2C17.6 14.2 17.5 14.2 17.2 14.1C17 14.1 16.7 13.9 16.6 13.9C16.6 13.9 16.5 13.9 16.4 13.8C16.2 13.7 16.2 13.7 15.9 13.5C15.8 13.4 15.6 13.3 15.6 13.3C15.2 13.1 14.9 13 14.4 12.9C14.2 12.9 14.1 12.9 14.1 12.9C14.1 12.9 14.1 13 14.2 13.1C14.3 13.2 14.4 13.6 14.5 13.7C14.5 13.8 14.6 14 14.6 14.1C14.9 15.3 15.1 15.7 15.5 16.1C15.7 16.4 15.9 16.5 16.5 16.8C16.9 17 17 17 17 17C17 17 16.5 17 16.2 16.9C15.5 16.8 14.9 16.4 14.2 15.4C13.7 14.8 13.6 14.6 13.2 14.4C13 14.3 12.8 14.2 12.8 14.2C12.8 14.2 12.8 14.3 12.8 14.4C12.9 14.8 12.9 15 12.8 15.6C12.8 15.9 12.7 16.4 12.7 16.7C12.7 17.2 12.8 17.7 12.9 18.1C13 18.3 13.1 18.4 13.4 18.8C13.7 19.1 13.8 19.2 13.7 19.2C13.7 19.2 13.3 19 13.2 18.9C12.6 18.6 12.2 18.1 11.9 17.3C11.9 17.2 11.8 17 11.7 16.7C11.5 15.9 11.4 15.7 11.2 15.5C11.1 15.3 10.8 15.1 10.8 15.1C10.8 15.1 10.8 15.1 10.8 15.2C10.7 15.5 10.6 15.9 10.4 16.2C10.4 16.3 10.3 16.3 10.3 16.4C10.2 16.5 10.2 16.6 10 16.9C9.8 17.2 9.8 17.2 9.8 17.3C9.8 17.3 9.8 17.4 9.7 17.5C9.6 17.7 9.5 18 9.5 18.1C9.5 18.3 9.5 18.7 9.5 18.9C9.5 19 9.7 19.4 9.7 19.6C9.9 19.7 10 20 10 20C10 20 10 20 9.8 19.9Z" fill="#939B91"/>
</g>
<defs>
<clipPath id="clip0_404_41039">
<rect width="20" height="20" fill="white"/>
</clipPath>
</defs>
</svg>
